<svg width="33" height="32" viewBox="0 0 33 32" fill="none" xmlns="http://www.w3.org/2000/svg">
<rect x="0.852051" width="32" height="32" rx="16" fill="#055527"/>
<path d="M10.3371 20.34C10.061 20.34 9.83716 20.1634 9.83716 19.9455V12.0547C9.83716 11.8368 10.061 11.6602 10.3371 11.6602C10.6132 11.6602 10.837 11.8368 10.837 12.0547V19.9455C10.837 20.1634 10.6132 20.34 10.3371 20.34Z" fill="white"/>
<path d="M12.3366 18.7619C12.0605 18.7619 11.8367 18.5852 11.8367 18.3673V12.0547C11.8367 11.8368 12.0605 11.6602 12.3366 11.6602C12.6127 11.6602 12.8365 11.8368 12.8365 12.0547V18.3673C12.8365 18.5852 12.6127 18.7619 12.3366 18.7619Z" fill="white"/>
<path d="M14.3365 18.7619C14.0604 18.7619 13.8365 18.5852 13.8365 18.3673V12.0547C13.8365 11.8368 14.0604 11.6602 14.3365 11.6602C14.6126 11.6602 14.8364 11.8368 14.8364 12.0547V18.3673C14.8364 18.5852 14.6126 18.7619 14.3365 18.7619Z" fill="white"/>
<path d="M12.3366 20.3396C12.271 20.3414 12.2058 20.3306 12.1466 20.3081C12.0841 20.2915 12.0287 20.2614 11.9867 20.2213C11.7934 20.0762 11.7857 19.835 11.9695 19.6825C11.9751 19.6779 11.9808 19.6733 11.9867 19.6689C12.0287 19.6288 12.0841 19.5987 12.1466 19.5821C12.3322 19.5218 12.5457 19.5561 12.6866 19.6689C12.8798 19.8245 12.8767 20.0743 12.6796 20.2269C12.5878 20.2978 12.4651 20.3382 12.3366 20.3396Z" fill="white"/>
<path d="M14.3362 20.3397C14.2706 20.3415 14.2054 20.3307 14.1463 20.3082C14.0838 20.2916 14.0284 20.2615 13.9863 20.2214C13.793 20.0763 13.7854 19.8351 13.9692 19.6826C13.9747 19.6779 13.9805 19.6734 13.9863 19.669C14.0283 19.6289 14.0838 19.5988 14.1463 19.5822C14.3318 19.521 14.5458 19.5554 14.6862 19.669C14.737 19.7022 14.7751 19.7459 14.7962 19.7953C14.8495 19.8908 14.8495 19.9996 14.7962 20.0951C14.7753 20.1445 14.7372 20.1883 14.6862 20.2214C14.5961 20.2982 14.4689 20.3412 14.3362 20.3397Z" fill="white"/>
<path d="M7.33758 12.4488C7.06148 12.4488 6.83765 12.2722 6.83765 12.0543V9.68703C6.83765 9.46914 7.06148 9.29248 7.33758 9.29248H10.3371C10.6131 9.29248 10.837 9.46914 10.837 9.68703C10.837 9.90493 10.6131 10.0816 10.3371 10.0816H7.83746V12.0543C7.83746 12.2722 7.61367 12.4488 7.33758 12.4488Z" fill="white"/>
<path d="M10.3371 22.7071H7.33758C7.06148 22.7071 6.83765 22.5305 6.83765 22.3126V19.9453C6.83765 19.7274 7.06148 19.5508 7.33758 19.5508C7.61367 19.5508 7.83746 19.7274 7.83746 19.9453V21.918H10.337C10.6131 21.918 10.8369 22.0947 10.8369 22.3126C10.8369 22.5305 10.6131 22.7071 10.3371 22.7071Z" fill="white"/>
<path d="M10.3371 20.34C10.061 20.34 9.83716 20.1634 9.83716 19.9455V12.0547C9.83716 11.8368 10.061 11.6602 10.3371 11.6602C10.6132 11.6602 10.837 11.8368 10.837 12.0547V19.9455C10.837 20.1634 10.6132 20.34 10.3371 20.34Z" fill="white"/>
<path d="M12.3367 18.7619C12.0606 18.7619 11.8368 18.5852 11.8368 18.3673V12.0547C11.8368 11.8368 12.0606 11.6602 12.3367 11.6602C12.6128 11.6602 12.8367 11.8368 12.8367 12.0547V18.3673C12.8367 18.5852 12.6128 18.7619 12.3367 18.7619Z" fill="white"/>
<path d="M14.3365 18.7619C14.0604 18.7619 13.8365 18.5852 13.8365 18.3673V12.0547C13.8365 11.8368 14.0604 11.6602 14.3365 11.6602C14.6126 11.6602 14.8364 11.8368 14.8364 12.0547V18.3673C14.8364 18.5852 14.6126 18.7619 14.3365 18.7619Z" fill="white"/>
<path d="M16.2393 20.1979C15.9632 20.1979 15.7394 20.0213 15.7394 19.8034V11.9126C15.7394 11.6947 15.9632 11.5181 16.2393 11.5181C16.5154 11.5181 16.7392 11.6947 16.7392 11.9126V19.8034C16.7392 20.0213 16.5154 20.1979 16.2393 20.1979Z" fill="white"/>
<path d="M18.626 18.7619C18.3499 18.7619 18.1261 18.5852 18.1261 18.3673V12.0547C18.1261 11.8368 18.3499 11.6602 18.626 11.6602C18.9021 11.6602 19.126 11.8368 19.126 12.0547V18.3673C19.1259 18.5852 18.9021 18.7619 18.626 18.7619Z" fill="white"/>
<path d="M20.6257 18.7619C20.3496 18.7619 20.1257 18.5852 20.1257 18.3673V12.0547C20.1257 11.8368 20.3496 11.6602 20.6257 11.6602C20.9018 11.6602 21.1256 11.8368 21.1256 12.0547V18.3673C21.1256 18.5852 20.9018 18.7619 20.6257 18.7619Z" fill="white"/>
<path d="M22.6252 20.34C22.3491 20.34 22.1252 20.1634 22.1252 19.9455V12.0547C22.1252 11.8368 22.3491 11.6602 22.6252 11.6602C22.9013 11.6602 23.1251 11.8368 23.1251 12.0547V19.9455C23.1251 20.1634 22.9013 20.34 22.6252 20.34Z" fill="white"/>
<path d="M12.3368 20.3398C12.2711 20.3414 12.206 20.3306 12.1468 20.3083C12.0843 20.2916 12.029 20.2615 11.9868 20.2215C11.7936 20.0758 11.7865 19.834 11.9711 19.6815C11.9763 19.6773 11.9815 19.6732 11.9868 19.6691C12.0289 19.6291 12.0843 19.599 12.1468 19.5823C12.2685 19.5429 12.405 19.5429 12.5268 19.5823C12.5894 19.5988 12.6448 19.6289 12.6867 19.6691C12.88 19.8247 12.8769 20.0745 12.6797 20.2271C12.588 20.298 12.4652 20.3384 12.3368 20.3398Z" fill="white"/>
<path d="M14.3364 20.3396C14.0603 20.3369 13.8392 20.1582 13.8426 19.9403C13.8441 19.8386 13.8953 19.7414 13.9855 19.6688C14.1255 19.5548 14.3399 19.5203 14.5254 19.582C14.588 19.5985 14.6434 19.6286 14.6853 19.6688C14.8786 19.8244 14.8755 20.0742 14.6784 20.2268C14.5869 20.2975 14.4645 20.3379 14.3364 20.3396Z" fill="white"/>
<path d="M18.6259 20.3397C18.5604 20.3405 18.4955 20.3297 18.436 20.3081C18.3735 20.2914 18.3182 20.2613 18.276 20.2213C18.0827 20.0756 18.0757 19.8338 18.2603 19.6813C18.2654 19.6771 18.2707 19.673 18.276 19.6689C18.4704 19.5186 18.7815 19.5186 18.9759 19.6689C19.1692 19.8134 19.1775 20.0541 18.9945 20.2066C18.9885 20.2116 18.9823 20.2165 18.9759 20.2213C18.9339 20.2615 18.8785 20.2916 18.8159 20.3081C18.7564 20.3298 18.6915 20.3406 18.6259 20.3397Z" fill="white"/>
<path d="M20.6255 20.3396C20.56 20.3405 20.4951 20.3297 20.4356 20.3081C20.3731 20.2914 20.3178 20.2613 20.2756 20.2213C20.1784 20.1501 20.1239 20.0498 20.1257 19.9451C20.1232 19.8933 20.1369 19.8418 20.1656 19.7952C20.1863 19.7459 20.224 19.7022 20.2746 19.6689C20.3167 19.6289 20.3721 19.5988 20.4346 19.5821C20.6201 19.5218 20.8336 19.5561 20.9745 19.6689C21.025 19.7023 21.063 19.746 21.0845 19.7952C21.1132 19.8418 21.1269 19.8933 21.1244 19.9451C21.1171 20.1605 20.8975 20.3338 20.6245 20.3396H20.6255Z" fill="white"/>
<path d="M7.33758 12.4488C7.06148 12.4488 6.83765 12.2722 6.83765 12.0543V9.68703C6.83765 9.46914 7.06148 9.29248 7.33758 9.29248H10.3371C10.6131 9.29248 10.837 9.46914 10.837 9.68703C10.837 9.90493 10.6131 10.0816 10.3371 10.0816H7.83746V12.0543C7.83746 12.2722 7.61367 12.4488 7.33758 12.4488Z" fill="white"/>
<path d="M10.3371 22.7071H7.33758C7.06148 22.7071 6.83765 22.5305 6.83765 22.3126V19.9453C6.83765 19.7274 7.06148 19.5508 7.33758 19.5508C7.61367 19.5508 7.83746 19.7274 7.83746 19.9453V21.918H10.337C10.6131 21.918 10.8369 22.0947 10.8369 22.3126C10.8369 22.5305 10.6131 22.7071 10.3371 22.7071Z" fill="white"/>
<path d="M26.3665 12.4488C26.0904 12.4488 25.8665 12.2721 25.8665 12.0542V10.0815H23.367C23.0909 10.0815 22.8671 9.90489 22.8671 9.68699C22.8671 9.4691 23.0909 9.29248 23.367 9.29248H26.3665C26.6426 9.29248 26.8664 9.46914 26.8664 9.68703V12.0543C26.8664 12.2722 26.6426 12.4488 26.3665 12.4488Z" fill="white"/>
<path d="M26.3665 22.7071H23.367C23.0909 22.7071 22.8671 22.5305 22.8671 22.3126C22.8671 22.0947 23.0909 21.918 23.367 21.918H25.8665V19.9453C25.8665 19.7274 26.0904 19.5508 26.3665 19.5508C26.6426 19.5508 26.8664 19.7274 26.8664 19.9453V22.3126C26.8664 22.5305 26.6426 22.7071 26.3665 22.7071Z" fill="white"/>
</svg>
