<svg width="64" height="64" viewBox="0 0 64 64" fill="none" xmlns="http://www.w3.org/2000/svg">
<path d="M23.9991 51.9961H17.9991C16.0137 51.9942 14.0514 51.57 12.2425 50.7517C10.4335 49.9334 8.81934 48.7397 7.50703 47.2498C6.19472 45.7599 5.2143 44.008 4.63085 42.1102C4.0474 40.2125 3.87427 38.2124 4.12294 36.2426C4.37162 34.2728 5.03641 32.3785 6.07319 30.6853C7.10997 28.9921 8.49504 27.5388 10.1364 26.4218C11.7779 25.3048 13.6381 24.5497 15.5936 24.2067C17.5492 23.8636 19.5553 23.9404 21.4789 24.432" stroke="#B0B7BA" stroke-width="2" stroke-linecap="round" stroke-linejoin="round"/>
<path d="M19.999 31.9961C19.9993 28.8272 20.7526 25.7037 22.1969 22.883C23.6411 20.0623 25.7349 17.6252 28.3058 15.7725C30.8767 13.9198 33.851 12.7044 36.9837 12.2267C40.1164 11.7489 43.3178 12.0224 46.324 13.0245C49.3303 14.0267 52.0554 15.7289 54.2748 17.9908C56.4942 20.2528 58.1443 23.0097 59.0892 26.0344C60.0341 29.0592 60.2468 32.2652 59.7096 35.3883C59.1724 38.5113 57.9008 41.462 55.9996 43.9972" stroke="#B0B7BA" stroke-width="2" stroke-linecap="round" stroke-linejoin="round"/>
<path d="M29.5127 40.4814L37.9979 31.9958L46.4832 40.4814" stroke="#B0B7BA" stroke-width="2" stroke-linecap="round" stroke-linejoin="round"/>
<path d="M37.999 51.9961V31.9961" stroke="#B0B7BA" stroke-width="2" stroke-linecap="round" stroke-linejoin="round"/>
</svg>
