<svg width="32" height="37" viewBox="0 0 32 37" fill="none" xmlns="http://www.w3.org/2000/svg">
<path fill-rule="evenodd" clip-rule="evenodd" d="M0.853516 25.2615L9.84941 25.2303L10.0412 21.1139L3.83287 21.1357L0.853516 25.2615Z" fill="#FE5733"/>
<path fill-rule="evenodd" clip-rule="evenodd" d="M11.8552 9.98178L8.90625 14.1449L17.1413 36.9643L20.1541 32.9788L17.4852 25.5811L15.8662 21.0939L11.8552 9.98178Z" fill="#FE5733"/>
<path fill-rule="evenodd" clip-rule="evenodd" d="M12.9533 15.5944L10.4761 11.9174L19.3168 0.0356445L20.0867 6.03729L12.9533 15.5944Z" fill="#FE5733"/>
<path fill-rule="evenodd" clip-rule="evenodd" d="M27.8782 25.5325L31.1467 21.0203L18.8428 21.064L20.4649 25.5512L27.8782 25.5325Z" fill="#FE5733"/>
<path fill-rule="evenodd" clip-rule="evenodd" d="M24.8079 11.9584L24.0228 5.95987L16.8406 15.6884L16.8315 15.6915L16.8346 15.6978L16.8315 15.704L16.8346 15.7008L18.5023 20.4187L22.7142 14.7567L22.7263 14.7536L24.8079 11.9584Z" fill="#FE5733"/>
</svg>
