<svg width="38" height="46" viewBox="0 0 38 46" fill="none" xmlns="http://www.w3.org/2000/svg">
    <path fill-rule="evenodd" clip-rule="evenodd" d="M0 30.9676L11.0436 30.9294L11.279 25.876L3.65754 25.9028L0 30.9676Z" fill="#EF4F26"/>
    <path fill-rule="evenodd" clip-rule="evenodd" d="M13.5059 12.2102L9.88574 17.321L19.9953 45.3347L23.694 40.442L20.4175 31.3604L18.43 25.8517L13.5059 12.2102Z" fill="#EF4F26"/>
    <path fill-rule="evenodd" clip-rule="evenodd" d="M14.8546 19.1004L11.8135 14.5864L22.6666 0L23.6118 7.36779L14.8546 19.1004Z" fill="#EF4F26"/>
    <path fill-rule="evenodd" clip-rule="evenodd" d="M33.1752 31.3007L37.1877 25.7615L22.083 25.815L24.0743 31.3237L33.1752 31.3007Z" fill="#EF4F26"/>
    <path fill-rule="evenodd" clip-rule="evenodd" d="M29.4073 14.6362L28.4434 7.27222L19.6264 19.2152L19.6152 19.2191L19.619 19.2267L19.6152 19.2343L19.619 19.2305L21.6663 25.0222L26.8369 18.0714L26.8518 18.0676L29.4073 14.6362Z" fill="#EF4F26"/>
    </svg>
    