<svg width="155" height="38" viewBox="0 0 155 38" fill="none" xmlns="http://www.w3.org/2000/svg">
<path fill-rule="evenodd" clip-rule="evenodd" d="M144.156 21.6661L147.05 23.8049L145.416 27.0595L141.56 27.0338L144.156 21.6661ZM138.854 9.31465L142.66 9.21521L146.104 17.533L150.376 9.21521H154.231L147.028 23.8049L144.134 21.6661L138.833 9.31465H138.854Z" fill="#FE5733"/>
<path d="M138.83 27.0576L132.802 9.23578H127.463L121.475 27.0095L125.202 27.0191L129.921 13.68L130.356 13.6704L135.063 27.0351L138.83 27.0576Z" fill="#FE5733"/>
<path d="M119.859 18.2581C119.881 27.4319 112.766 27.0375 112.565 27.0375H104.815V16.3342H108.344V23.4494H112.475C114.864 23.4494 116.057 22.853 116.057 18.2837C116.057 14.6764 113.831 12.8775 112.19 12.8615L104.821 12.884V9.23816H112.65C114.02 9.2293 115.35 9.71267 116.408 10.6041C117.833 11.8033 119.827 14.0543 119.853 18.2581H119.859Z" fill="#FE5733"/>
<path fill-rule="evenodd" clip-rule="evenodd" d="M69.4863 9.3114H81.6835V12.8834H69.4863V9.3114Z" fill="#FE5733"/>
<path fill-rule="evenodd" clip-rule="evenodd" d="M69.4863 16.3302H81.6835V19.9022H69.4863V16.3302Z" fill="#FE5733"/>
<path fill-rule="evenodd" clip-rule="evenodd" d="M69.4863 23.4913H81.6835V27.0601H69.4863V23.4913Z" fill="#FE5733"/>
<path fill-rule="evenodd" clip-rule="evenodd" d="M39.3882 9.3114H51.5856V12.8834H39.3882V9.3114Z" fill="#FE5733"/>
<path fill-rule="evenodd" clip-rule="evenodd" d="M39.4007 19.9022H39.3882V16.3302H51.5856V19.9022H42.8861V27.0592H39.4007V19.9022Z" fill="#FE5733"/>
<path fill-rule="evenodd" clip-rule="evenodd" d="M58.6907 9.35614V26.8605H55.2017V9.35614H58.6907Z" fill="#FE5733"/>
<path fill-rule="evenodd" clip-rule="evenodd" d="M55.1836 23.8494H66.3441V27.0591H55.1836V23.8494Z" fill="#FE5733"/>
<path fill-rule="evenodd" clip-rule="evenodd" d="M101.222 9.33113L89.1249 27.0182L84.7568 27.06L90.6469 18.4473L84.4092 9.32792H88.7713L92.8232 15.2568L96.9446 9.23175L101.222 9.32792V9.33113ZM96.4874 20.6053L100.872 27.0182H96.5094L93.4782 22.5869L96.4748 20.5956L96.4874 20.6053Z" fill="#FE5733"/>
<path fill-rule="evenodd" clip-rule="evenodd" d="M0 25.9575L9.25684 25.9255L9.45415 21.6896L3.06578 21.7121L0 25.9575Z" fill="#FE5733"/>
<path fill-rule="evenodd" clip-rule="evenodd" d="M11.3206 10.2346L8.28613 14.5185L16.7601 37.9998L19.8603 33.8987L17.1139 26.2864L15.448 21.6691L11.3206 10.2346Z" fill="#FE5733"/>
<path fill-rule="evenodd" clip-rule="evenodd" d="M12.451 16.0101L9.90186 12.2264L18.999 0L19.7913 6.17574L12.451 16.0101Z" fill="#FE5733"/>
<path fill-rule="evenodd" clip-rule="evenodd" d="M27.8083 26.2365L31.1716 21.5934L18.5107 21.6383L20.1799 26.2557L27.8083 26.2365Z" fill="#FE5733"/>
<path fill-rule="evenodd" clip-rule="evenodd" d="M24.6497 12.2685L23.8417 6.09601L16.4513 16.1067L16.4419 16.1099L16.445 16.1164L16.4419 16.1227L16.445 16.1195L18.1611 20.9742L22.4952 15.148L22.5077 15.1448L24.6497 12.2685Z" fill="#FE5733"/>
</svg>
